{"title":"Zanjeer (2013) 1CD DVDScr Rip -Xvid (DesiDhamal) ][VAMPIRE ROCK'","uid":8902537,"size":731150267,"categoryP":"video","categoryS":"movies","magnet":"?xt=urn:btih:6b1d3ce3c0085ebb2811dee285d23a0df18be1e9&amp;dn=Zanjeer+%282013%29+1CD+DVDScr+Rip+-Xvid+%28DesiDhamal%29+%5D%5BVAMPIRE+ROCK%27&amp;tr=udp%3A%2F%2Ftracker.openbittorrent.com%3A80&amp;tr=udp%3A%2F%2Fopen.demonii.com%3A1337&amp;tr=udp%3A%2F%2Ftracker.coppersurfer.tk%3A6969&amp;tr=udp%3A%2F%2Fexodus.desync.com%3A6969","seeders":1,"leechers":0,"uploader":"bhoottt","files":12,"time":1378838772,"description":"Zanjeer (2013) 1CD DVDScr Rip -Xvid (DesiDhamal) ][VAMPIRE ROCK'S][\n\n\n[URL=http://www.tinyuploads.com/gallery/view/rA8E0i][IMG]http://i.tinyuploads.com/rA8E0i.jpg[/IMG][/URL]\n\n\n\n[URL=http://www.tinyuploads.com/gallery/view/8uPLuE][IMG]http://i.tinyuploads.com/8uPLuE.png[/IMG][/URL]\n[URL=http://www.tinyuploads.com/gallery/view/hKtp8Z][IMG]http://i.tinyuploads.com/hKtp8Z.png[/IMG][/URL]\n[URL=http://www.tinyuploads.com/gallery/view/nC4PAl][IMG]http://i.tinyuploads.com/nC4PAl.png[/IMG][/URL]\n[URL=http://www.tinyuploads.com/gallery/view/ilvli2][IMG]http://i.tinyuploads.com/ilvli2.png[/IMG][/URL]\n[URL=http://www.tinyuploads.com/gallery/view/UUi4T2][IMG]http://i.tinyuploads.com/UUi4T2.png[/IMG][/URL]\n[URL=http://www.tinyuploads.com/gallery/view/Ql0p09][IMG]http://i.tinyuploads.com/Ql0p09.png[/IMG][/URL]\n[URL=http://www.tinyuploads.com/gallery/view/iIoS1f][IMG]http://i.tinyuploads.com/iIoS1f.png[/IMG][/URL]\n[URL=http://www.tinyuploads.com/gallery/view/Tbl3iZ][IMG]http://i.tinyuploads.com/Tbl3iZ.png[/IMG][/URL]\n\n\nINFO\n\nGeneral\nFormat                                   : AVI\nFormat/Info                              : Audio Video Interleave\nFile size                                : 695 MiB\nDuration                                 : 2h 15mn\nOverall bit rate                         : 719 Kbps\n\nVideo\nID                                       : 0\nFormat                                   : MPEG-4 Visual\nFormat profile                           : Advanced Simple@L5\nFormat settings, BVOP                    : 2\nFormat settings, QPel                    : No\nFormat settings, GMC                     : No warppoints\nFormat settings, Matrix                  : Default (H.263)\nCodec ID                                 : XVID\nCodec ID/Hint                            : XviD\nDuration                                 : 2h 15mn\nBit rate                                 : 584 Kbps\nWidth                                    : 720 pixels\nHeight                                   : 272 pixels\nDisplay aspect ratio                     : 2.647\nFrame rate                               : 29.970 fps\nColor space                              : YUV\nChroma subsampling                       : 4:2:0\nBit depth                                : 8 bits\nScan type                                : Progressive\nCompression mode                         : Lossy\nBits/(Pixel*Frame)                       : 0.100\nStream size                              : 564 MiB (81%)\nWriting library                          : XviD 1.2.1 (UTC 2008-12-04)\n\nAudio\nID                                       : 1\nFormat                                   : MPEG Audio\nFormat version                           : Version 1\nFormat profile                           : Layer 3\nMode                                     : Joint stereo\nMode extension                           : MS Stereo\nCodec ID                                 : 55\nCodec ID/Hint                            : MP3\nDuration                                 : 2h 15mn\nBit rate mode                            : Constant\nBit rate                                 : 128 Kbps\nChannel(s)                               : 2 channels\nSampling rate                            : 48.0 KHz\nCompression mode                         : Lossy\nStream size                              : 124 MiB (18%)\nAlignment                                : Aligned on interleaves\nInterleave, duration                     : 133 ms (4.00 video frames)\nInterleave, preload duration             : 216 ms\nWriting library                          : LAME3.99r\n\n\nHit Thanks if you like my Rip &amp; post !!!","torrent":{"xt":"urn:btih:6b1d3ce3c0085ebb2811dee285d23a0df18be1e9","amp;dn":"Zanjeer+%282013%29+1CD+DVDScr+Rip+-Xvid+%28DesiDhamal%29+%5D%5BVAMPIRE+ROCK%27","amp;tr":["udp%3A%2F%2Ftracker.openbittorrent.com%3A80","udp%3A%2F%2Fopen.demonii.com%3A1337","udp%3A%2F%2Ftracker.coppersurfer.tk%3A6969","udp%3A%2F%2Fexodus.desync.com%3A6969"],"infoHash":"6b1d3ce3c0085ebb2811dee285d23a0df18be1e9","infoHashBuffer":{"type":"Buffer","data":[107,29,60,227,192,8,94,187,40,17,222,226,133,210,58,13,241,139,225,233]},"announce":[],"urlList":[]}}